HIERARCHY
ROOT Hips
{
	OFFSET 0.000000 0.000000 0.000000
	CHANNELS 6 Xposition Yposition Zposition Xrotation Yrotation Zrotation
	JOINT LeftUpLeg_virtual
	{
		OFFSET 0.000000 0.000000 0.000000
		CHANNELS 3 Xrotation Yrotation Zrotation
		JOINT LeftUpLeg
		{
			OFFSET 15.427100 -6.655098 0.678600
			CHANNELS 3 Xrotation Yrotation Zrotation
			JOINT LeftLeg
			{
				OFFSET 4.081073 -39.591068 13.024000
				CHANNELS 3 Xrotation Yrotation Zrotation
				JOINT LeftFoot
				{
					OFFSET -4.081074 -37.707932 -15.979700
					CHANNELS 3 Xrotation Yrotation Zrotation
					JOINT LeftToeBase
					{
						OFFSET 5.346399 -15.068900 20.645000
						CHANNELS 3 Xrotation Yrotation Zrotation
						JOINT LeftToe_End
						{
							OFFSET 2.754700 0.931300 11.300900
							CHANNELS 3 Xrotation Yrotation Zrotation
							End Site
							{
								OFFSET 0 0 0
							}
						}
					}
				}
			}
		}
	}
	JOINT RightUpLeg_virtual
	{
		OFFSET 0.000000 0.000000 0.000000
		CHANNELS 3 Xrotation Yrotation Zrotation
		JOINT RightUpLeg
		{
			OFFSET -15.569500 -6.655098 0.678600
			CHANNELS 3 Xrotation Yrotation Zrotation
			JOINT RightLeg
			{
				OFFSET -4.081825 -39.591045 13.023800
				CHANNELS 3 Xrotation Yrotation Zrotation
				JOINT RightFoot
				{
					OFFSET 4.081824 -37.707954 -15.979600
					CHANNELS 3 Xrotation Yrotation Zrotation
					JOINT RightToeBase
					{
						OFFSET -5.346400 -15.068900 20.645000
						CHANNELS 3 Xrotation Yrotation Zrotation
						JOINT RightToe_End
						{
							OFFSET -2.754700 0.931300 11.300900
							CHANNELS 3 Xrotation Yrotation Zrotation
							End Site
							{
								OFFSET 0 0 0
							}
						}
					}
				}
			}
		}
	}
	JOINT Spine_virtual
	{
		OFFSET 0.000000 0.000000 0.000000
		CHANNELS 3 Xrotation Yrotation Zrotation
		JOINT Spine
		{
			OFFSET -0.279200 12.230698 -2.892100
			CHANNELS 3 Xrotation Yrotation Zrotation
			JOINT Spine1
			{
				OFFSET -0.232667 10.192268 -1.242267
				CHANNELS 3 Xrotation Yrotation Zrotation
				JOINT Spine1_split
				{
					OFFSET -0.232667 10.192268 -1.242267
					CHANNELS 3 Xrotation Yrotation Zrotation
					JOINT Spine2
					{
						OFFSET -0.232667 10.192268 -1.242267
						CHANNELS 3 Xrotation Yrotation Zrotation
						JOINT Neck_virtual
						{
							OFFSET 0.000000 0.000000 0.000000
							CHANNELS 3 Xrotation Yrotation Zrotation
							JOINT Neck
							{
								OFFSET -0.418800 17.814194 8.416900
								CHANNELS 3 Xrotation Yrotation Zrotation
								JOINT Head
								{
									OFFSET 0.000000 7.031097 3.806800
									CHANNELS 3 Xrotation Yrotation Zrotation
									JOINT HeadTop_End
									{
										OFFSET 0.000000 24.646606 12.978600
										CHANNELS 3 Xrotation Yrotation Zrotation
										End Site
										{
											OFFSET 0 0 0
										}
									}
								}
							}
						}
						JOINT LeftShoulder_virtual
						{
							OFFSET 0.000000 0.000000 0.000000
							CHANNELS 3 Xrotation Yrotation Zrotation
							JOINT LeftShoulder
							{
								OFFSET 8.476499 7.247704 -3.868750
								CHANNELS 3 Xrotation Yrotation Zrotation
								JOINT LeftShoulder_split
								{
									OFFSET 8.476499 7.247704 -3.868750
									CHANNELS 3 Xrotation Yrotation Zrotation
									JOINT LeftArm
									{
										OFFSET 9.308998 -2.777710 0.208600
										CHANNELS 3 Xrotation Yrotation Zrotation
										JOINT LeftForeArm
										{
											OFFSET 29.972298 0.000000 0.000000
											CHANNELS 3 Xrotation Yrotation Zrotation
											JOINT LeftHand
											{
												OFFSET 26.026505 0.000000 0.000000
												CHANNELS 3 Xrotation Yrotation Zrotation
												End Site
												{
													OFFSET 0 0 0
												}
											}
										}
									}
								}
							}
						}
						JOINT RightShoulder_virtual
						{
							OFFSET 0.000000 0.000000 0.000000
							CHANNELS 3 Xrotation Yrotation Zrotation
							JOINT RightShoulder
							{
								OFFSET -7.570500 7.247704 -3.868750
								CHANNELS 3 Xrotation Yrotation Zrotation
								JOINT RightShoulder_split
								{
									OFFSET -7.570500 7.247704 -3.868750
									CHANNELS 3 Xrotation Yrotation Zrotation
									JOINT RightArm
									{
										OFFSET -9.308998 -2.777710 0.208500
										CHANNELS 3 Xrotation Yrotation Zrotation
										JOINT RightForeArm
										{
											OFFSET -29.972300 0.000000 0.000000
											CHANNELS 3 Xrotation Yrotation Zrotation
											JOINT RightHand
											{
												OFFSET -26.026505 0.000000 0.000000
												CHANNELS 3 Xrotation Yrotation Zrotation
												End Site
												{
													OFFSET 0 0 0
												}
											}
										}
									}
								}
							}
						}
					}
				}
			}
		}
	}
}
MOTION
Frames: 9
Frame Time: 0.03333333
-2.243650 90.230621 0.287369 0.000000 0.000000 0.000000 5.291762 -17.610447 9.429761 -25.518492 -6.068809 -11.900928 14.430089 -4.308015 -9.109096 13.206325 -25.533919 10.638854 -1.410632 -0.673960 2.691713 0.000000 0.000000 0.000000 4.995865 -14.411045 9.501132 6.991586 -12.459230 -12.785796 29.924227 6.759976 -1.335298 -0.525447 -0.569669 8.366576 -41.912469 1.004524 -1.730046 0.000000 0.000000 0.000000 3.056641 -15.156888 8.009969 1.862400 5.737812 0.386454 5.884983 9.455585 2.212155 0.808753 -1.706079 0.793225 0.000000 0.000000 0.000000 4.947993 9.287325 2.233792 -2.157957 -0.402181 -1.948157 -7.228053 -1.149924 -11.979910 0.000000 0.000000 0.000000 4.755256 9.590999 1.949380 0.429497 0.191560 -13.317794 0.758481 2.108979 -1.974815 -19.023095 -24.447907 -69.899186 0.283421 -65.370422 -1.460579 0.000000 0.000000 0.000000 5.101059 9.608801 2.238627 1.028794 11.172010 18.217325 -1.445927 2.891478 -1.577485 -44.900946 56.540794 71.565875 -2.397600 39.220626 0.944302 0.000000 0.000000 0.000000 
-2.004776 90.216484 0.217857 0.000000 0.000000 0.000000 5.242214 -17.597129 9.262368 -25.676356 -6.677811 -11.683395 14.571490 -4.531610 -9.344068 13.382937 -25.702758 10.496766 -1.505811 -0.601210 2.616051 0.000000 0.000000 0.000000 5.020776 -14.311428 9.352012 7.042053 -12.536647 -12.881589 29.950113 7.031790 -1.329969 -1.000063 -0.505065 8.720758 -40.767217 1.104688 -1.912461 0.000000 0.000000 0.000000 3.226491 -15.484292 7.768663 1.867919 5.791634 0.482831 5.858436 9.430931 2.197115 0.879413 -1.722274 0.765190 0.000000 0.000000 0.000000 4.993567 9.264849 2.218641 -2.127512 -0.341377 -1.960411 -7.270607 -1.260603 -11.983912 0.000000 0.000000 0.000000 4.741817 9.557529 1.933326 0.437971 0.156089 -13.308110 0.850648 2.151881 -1.934161 -19.359152 -24.652262 -69.977631 0.392625 -65.465328 -1.376567 0.000000 0.000000 0.000000 5.074729 9.579448 2.243624 1.029699 11.019402 18.188751 -1.568114 2.869725 -1.557373 -45.061244 56.542850 71.637995 -2.363051 39.414467 0.928146 0.000000 0.000000 0.000000 
-1.757187 90.040733 0.179634 0.000000 0.000000 0.000000 5.064585 -17.870130 8.977988 -26.050191 -7.308366 -11.347991 15.176703 -4.780215 -9.625873 13.413026 -25.863823 10.196428 -1.589236 -0.406286 2.484196 0.000000 0.000000 0.000000 5.119362 -14.495902 9.014997 7.441748 -12.438608 -12.550880 29.268969 7.199438 -1.418941 -2.559735 -0.329715 8.248069 -38.438020 1.281325 -2.134001 0.000000 0.000000 0.000000 3.336807 -15.896294 7.435257 1.946323 5.884326 0.649446 5.817947 9.396162 2.178823 0.915210 -1.759370 0.685906 0.000000 0.000000 0.000000 5.019777 9.225566 2.192693 -2.343352 -0.260831 -1.954367 -7.540626 -1.435058 -11.870579 0.000000 0.000000 0.000000 4.724331 9.505750 1.908520 0.442294 0.108713 -13.315398 0.861711 2.218159 -1.887318 -19.828379 -25.129041 -70.096927 0.513728 -65.522592 -1.301140 0.000000 0.000000 0.000000 5.044601 9.537475 2.235647 1.018307 10.865675 18.186851 -1.664558 2.817859 -1.518307 -45.190335 56.415829 71.627825 -2.359135 40.048640 0.943614 0.000000 0.000000 0.000000 
-1.533803 89.734573 0.039967 0.000000 0.000000 0.000000 4.803745 -18.431351 8.631718 -26.434663 -7.870211 -10.938475 16.007226 -5.038339 -9.866823 13.140234 -26.040620 9.658771 -1.652348 -0.090930 2.280467 0.000000 0.000000 0.000000 5.235825 -15.038145 8.626975 7.933943 -12.320499 -12.032055 28.376528 7.274874 -1.439083 -4.268042 -0.065679 7.206600 -35.882672 1.491191 -2.349696 0.000000 0.000000 0.000000 3.426440 -16.324463 7.109491 2.052662 6.003323 0.857475 5.767032 9.354042 2.155332 0.928823 -1.816902 0.583815 0.000000 0.000000 0.000000 5.021758 9.175546 2.160744 -2.767103 -0.190056 -1.941903 -8.001394 -1.650299 -11.663485 0.000000 0.000000 0.000000 4.692179 9.444200 1.878309 0.442275 0.076964 -13.347302 0.791386 2.322513 -1.822326 -20.292156 -25.778160 -70.206668 0.602316 -65.571681 -1.265889 0.000000 0.000000 0.000000 5.005877 9.483814 2.216302 0.994174 10.709145 18.186811 -1.705870 2.814165 -1.490050 -45.234967 56.178630 71.496262 -2.384997 41.010621 0.993767 0.000000 0.000000 0.000000 
-1.363517 89.335968 -0.097263 0.000000 0.000000 0.000000 4.526362 -19.175365 8.295958 -26.704638 -8.372384 -10.511535 16.856705 -5.282524 -10.018109 12.516764 -26.278576 8.884427 -1.751147 0.322672 2.032132 0.000000 0.000000 0.000000 5.274634 -15.845721 8.273424 8.261464 -12.345139 -11.648448 27.349823 7.505151 -1.300883 -5.313176 0.455422 6.584839 -34.418635 1.690203 -2.592556 0.000000 0.000000 0.000000 3.471039 -16.677235 6.816609 2.188301 6.152973 1.093634 5.709437 9.304567 2.128881 0.910480 -1.846145 0.544464 0.000000 0.000000 0.000000 4.983673 9.118414 2.132536 -3.323329 -0.164101 -1.927893 -8.588346 -1.881107 -11.409664 0.000000 0.000000 0.000000 4.630875 9.381375 1.851920 0.434696 0.086503 -13.412226 0.676199 2.426980 -1.801184 -20.660462 -26.531127 -70.275994 0.625272 -65.656518 -1.284564 0.000000 0.000000 0.000000 4.949558 9.418800 2.185637 0.954575 10.549568 18.137864 -1.664624 2.854366 -1.491810 -45.163424 55.818977 71.244494 -2.442730 42.206512 1.069832 0.000000 0.000000 0.000000 
-1.249768 88.933479 -0.048389 0.000000 0.000000 0.000000 4.268739 -19.877362 7.986735 -26.854639 -8.821247 -10.028534 17.678572 -5.550633 -10.046215 11.698571 -26.639811 7.891563 -1.908115 0.817171 1.780825 0.000000 0.000000 0.000000 5.221893 -16.793550 7.964404 8.398583 -12.502319 -11.483538 26.273735 7.996792 -1.046212 -5.647631 1.305021 6.764235 -33.878186 1.847359 -2.906705 0.000000 0.000000 0.000000 3.483706 -16.972713 6.536928 2.353843 6.326768 1.369714 5.653230 9.252922 2.097859 0.848087 -1.811213 0.570693 0.000000 0.000000 0.000000 4.900648 9.049844 2.113406 -3.947996 -0.191979 -1.915372 -9.243149 -2.108707 -11.153504 0.000000 0.000000 0.000000 4.534494 9.317603 1.829464 0.418959 0.152538 -13.510325 0.530280 2.465091 -1.785700 -20.909477 -27.311772 -70.311306 0.578856 -65.787405 -1.349450 0.000000 0.000000 0.000000 4.878436 9.344320 2.146075 0.894065 10.387979 18.007229 -1.597346 2.888658 -1.495014 -44.987222 55.362150 70.891961 -2.533051 43.527457 1.158456 0.000000 0.000000 0.000000 
-1.175655 88.590271 0.062584 0.000000 0.000000 0.000000 4.118305 -20.510911 7.652578 -26.888022 -9.132588 -9.451273 18.513337 -5.848472 -9.919192 10.809320 -27.108066 6.813431 -2.135091 1.390665 1.542738 0.000000 0.000000 0.000000 5.063185 -17.817747 7.688977 8.638209 -12.739574 -11.403814 25.107437 8.470287 -0.763791 -5.976734 2.233737 7.222449 -32.946237 1.919206 -3.249702 0.000000 0.000000 0.000000 3.497251 -17.240630 6.241801 2.538957 6.521130 1.683098 5.581203 9.198731 2.063350 0.785566 -1.695508 0.545251 0.000000 0.000000 0.000000 4.778792 8.963677 2.105204 -4.569779 -0.272592 -1.898474 -9.919045 -2.342231 -10.936246 0.000000 0.000000 0.000000 4.407762 9.251040 1.809974 0.395070 0.262930 -13.606434 0.385747 2.451708 -1.764152 -21.136439 -28.073647 -70.347622 0.497399 -65.927035 -1.419388 0.000000 0.000000 0.000000 4.796886 9.263077 2.104373 0.814898 10.211711 17.807220 -1.536265 2.899375 -1.502816 -44.786462 54.817521 70.548662 -2.637890 44.858903 1.235688 0.000000 0.000000 0.000000 
-1.183286 88.318901 0.203026 0.000000 0.000000 0.000000 4.064357 -21.034295 7.252711 -26.915522 -9.204587 -8.743412 19.339409 -6.059967 -9.652830 9.874891 -27.605309 5.858818 -2.472938 2.044984 1.335591 0.000000 0.000000 0.000000 4.827134 -18.600429 7.327443 9.061685 -13.008787 -11.243594 23.731026 8.661663 -0.567860 -6.954814 3.103227 7.438576 -30.687610 1.908876 -3.570025 0.000000 0.000000 0.000000 3.519994 -17.391031 5.880026 2.764394 6.731585 2.047021 5.496750 9.140310 2.022275 0.750163 -1.509779 0.558656 0.000000 0.000000 0.000000 4.630020 8.860965 2.106708 -5.111218 -0.389743 -1.851924 -10.567881 -2.542828 -10.781071 0.000000 0.000000 0.000000 4.271271 9.175515 1.788779 0.363124 0.387227 -13.675106 0.218754 2.388639 -1.737092 -21.408200 -28.796470 -70.423512 0.432573 -66.017480 -1.448762 0.000000 0.000000 0.000000 4.720682 9.185284 2.058803 0.719231 10.031398 17.567909 -1.437425 2.924829 -1.515190 -44.595480 54.233560 70.284320 -2.741719 46.110887 1.294195 0.000000 0.000000 0.000000 
-1.215967 88.124313 0.343857 0.000000 0.000000 0.000000 4.163387 -21.588119 6.782711 -27.074412 -9.000619 -7.946584 20.121327 -6.093420 -9.313951 9.012587 -28.025902 5.210927 -2.814580 2.772017 1.172547 0.000000 0.000000 0.000000 4.681023 -19.072933 6.812695 9.682278 -13.169616 -10.903092 22.467325 8.533674 -0.516687 -8.245228 3.799802 7.374709 -28.362074 1.935553 -3.825244 0.000000 0.000000 0.000000 3.602118 -17.472136 5.468412 2.979732 6.945843 2.449022 5.412394 9.069939 1.970017 0.730062 -1.399408 0.581095 0.000000 0.000000 0.000000 4.477899 8.752172 2.109438 -5.521790 -0.521653 -1.768581 -11.207519 -2.661117 -10.663054 0.000000 0.000000 0.000000 4.141882 9.093324 1.760623 0.322422 0.468419 -13.690912 0.052041 2.297591 -1.711524 -21.720893 -29.436517 -70.556523 0.421231 -66.033866 -1.419855 0.000000 0.000000 0.000000 4.660525 9.112360 2.012684 0.610819 9.871458 17.335751 -1.308977 2.965885 -1.460432 -44.454734 53.715872 70.112834 -2.833610 47.216189 1.337059 0.000000 0.000000 0.000000 
